<?xml version="1.0" encoding="utf-8"?>
<!-- Generated by Mocodo 4.2.10 -->
<svg width="544" height="120" viewBox="0 0 544 120" xmlns="http://www.w3.org/2000/svg">
<rect x="0" y="0" width="544" height="120" fill="#f7f7f7" stroke="none" stroke-width="0"/>

<!-- Association CONTENIR -->
<g>
	<line x1="258" y1="60" x2="149" y2="60" stroke="#de77ae" stroke-width="2"/>
	<line x1="43" y1="60" x2="149" y2="60" stroke="#de77ae" stroke-width="2"/>
	<g>
		<path d="M175 35 a14 14 90 0 1 14 14 V60 h-80 V49 a14 14 90 0 1 14 -14" fill="#f1b6da" stroke="#f1b6da" stroke-width="0"/>
		<path d="M189 60 v11 a14 14 90 0 1 -14 14 H123 a14 14 90 0 1 -14 -14 V60 H80" fill="#fde0ef" stroke="#fde0ef" stroke-width="0"/>
		<rect x="109" y="35" width="80" height="50" fill="none" rx="14" stroke="#de77ae" stroke-width="2"/>
		<line x1="109" y1="60" x2="189" y2="60" stroke="#de77ae" stroke-width="1"/>
		<text x="117" y="52.75" fill="#000000" font-family="Verdana" font-size="12">CONTENIR</text>
	</g>
	<text x="195" y="77" fill="#4d9221" font-family="Verdana" font-size="12">1,1</text>
	<text x="82" y="77" fill="#4d9221" font-family="Verdana" font-size="12">0,N</text>
</g>

<!-- Association CATEGORISER -->
<g>
	<line x1="258" y1="60" x2="379" y2="60" stroke="#de77ae" stroke-width="2"/>
	<line x1="499" y1="60" x2="379" y2="60" stroke="#de77ae" stroke-width="2"/>
	<g>
		<path d="M417 35 a14 14 90 0 1 14 14 V60 h-104 V49 a14 14 90 0 1 14 -14" fill="#f1b6da" stroke="#f1b6da" stroke-width="0"/>
		<path d="M431 60 v11 a14 14 90 0 1 -14 14 H341 a14 14 90 0 1 -14 -14 V60 H104" fill="#fde0ef" stroke="#fde0ef" stroke-width="0"/>
		<rect x="327" y="35" width="104" height="50" fill="none" rx="14" stroke="#de77ae" stroke-width="2"/>
		<line x1="327" y1="60" x2="431" y2="60" stroke="#de77ae" stroke-width="1"/>
		<text x="335" y="52.75" fill="#000000" font-family="Verdana" font-size="12">CATEGORISER</text>
	</g>
	<text x="300" y="77" fill="#4d9221" font-family="Verdana" font-size="12">0,N</text>
	<text x="436" y="77" fill="#4d9221" font-family="Verdana" font-size="12">0,N</text>
</g>

<!-- Entity LISTE -->
<g>
	<g>
		<rect x="9" y="18" width="68" height="25" fill="#b8e186" stroke="none" stroke-width="0" opacity="1"/>
		<rect x="9" y="43" width="68" height="59" fill="#e6f5d0" stroke="none" stroke-width="0" opacity="1"/>
		<rect x="9" y="18" width="68" height="84" fill="none" stroke="#7fbc41" stroke-width="2" opacity="1"/>
		<line x1="9" y1="43" x2="77" y2="43" stroke="#7fbc41" stroke-width="1"/>
	</g>
	<text x="25" y="35.75" fill="#000000" font-family="Verdana" font-size="12">LISTE</text>
	<text x="14" y="60.8" fill="#000000" font-family="Verdana" font-size="12">code liste</text>
	<line x1="14" y1="63" x2="72" y2="63" stroke="#000000" stroke-width="1"/>
	<text x="14" y="77.8" fill="#000000" font-family="Verdana" font-size="12">titre</text>
	<text x="14" y="94.8" fill="#000000" font-family="Verdana" font-size="12">position</text>
</g>

<!-- Entity CARTE -->
<g>
	<g>
		<rect x="221" y="9" width="74" height="25" fill="#b8e186" stroke="none" stroke-width="0" opacity="1"/>
		<rect x="221" y="34" width="74" height="77" fill="#e6f5d0" stroke="none" stroke-width="0" opacity="1"/>
		<rect x="221" y="9" width="74" height="102" fill="none" stroke="#7fbc41" stroke-width="2" opacity="1"/>
		<line x1="221" y1="34" x2="295" y2="34" stroke="#7fbc41" stroke-width="1"/>
	</g>
	<text x="238" y="26.75" fill="#000000" font-family="Verdana" font-size="12">CARTE</text>
	<text x="226" y="51.8" fill="#000000" font-family="Verdana" font-size="12">code carte</text>
	<line x1="226" y1="54" x2="290" y2="54" stroke="#000000" stroke-width="1"/>
	<text x="226" y="68.8" fill="#000000" font-family="Verdana" font-size="12">contenu</text>
	<text x="226" y="85.8" fill="#000000" font-family="Verdana" font-size="12">position</text>
	<text x="226" y="102.8" fill="#000000" font-family="Verdana" font-size="12">couleur</text>
</g>

<!-- Entity LABEL -->
<g>
	<g>
		<rect x="463" y="18" width="72" height="25" fill="#b8e186" stroke="none" stroke-width="0" opacity="1"/>
		<rect x="463" y="43" width="72" height="59" fill="#e6f5d0" stroke="none" stroke-width="0" opacity="1"/>
		<rect x="463" y="18" width="72" height="84" fill="none" stroke="#7fbc41" stroke-width="2" opacity="1"/>
		<line x1="463" y1="43" x2="535" y2="43" stroke="#7fbc41" stroke-width="1"/>
	</g>
	<text x="480" y="35.75" fill="#000000" font-family="Verdana" font-size="12">LABEL</text>
	<text x="468" y="60.8" fill="#000000" font-family="Verdana" font-size="12">code label</text>
	<line x1="468" y1="63" x2="530" y2="63" stroke="#000000" stroke-width="1"/>
	<text x="468" y="77.8" fill="#000000" font-family="Verdana" font-size="12">nom</text>
	<text x="468" y="94.8" fill="#000000" font-family="Verdana" font-size="12">couleur</text>
</g>
</svg>